<svg width="898" viewBox="0 0 898 586" fill="none" xmlns="http://www.w3.org/2000/svg">
<path d="M596.985 536.185L595.867 534.526C597.52 533.413 599.16 532.283 600.789 531.137L601.94 532.773C600.301 533.927 598.649 535.064 596.985 536.185Z" fill="#CCCCCC"/>
<path d="M435.632 585.991L435.618 583.991C439.662 583.962 443.75 583.849 447.768 583.655L447.864 585.653C443.819 585.848 439.703 585.962 435.632 585.991ZM423.397 585.828C419.337 585.69 415.226 585.466 411.18 585.161L411.33 583.167C415.349 583.47 419.432 583.693 423.465 583.829L423.397 585.828ZM460.068 584.811L459.889 582.818C463.903 582.458 467.966 582.008 471.965 581.479L472.227 583.462C468.2 583.994 464.109 584.448 460.068 584.811V584.811ZM398.999 583.989C394.957 583.515 390.879 582.95 386.879 582.31L387.194 580.335C391.168 580.971 395.218 581.532 399.232 582.003L398.999 583.989ZM484.319 581.607L483.975 579.637C487.943 578.943 491.955 578.155 495.897 577.293L496.324 579.248C492.354 580.115 488.315 580.909 484.319 581.607V581.607ZM374.839 580.125C370.859 579.317 366.843 578.413 362.901 577.438L363.381 575.496C367.296 576.464 371.285 577.362 375.237 578.166L374.839 580.125ZM508.22 576.386L507.711 574.451C511.611 573.426 515.542 572.303 519.395 571.115L519.985 573.026C516.105 574.223 512.147 575.353 508.22 576.386V576.386ZM351.059 574.241C347.157 573.099 343.223 571.857 339.365 570.55L340.007 568.655C343.838 569.954 347.746 571.188 351.62 572.321L351.059 574.241ZM531.598 569.173L530.929 567.289C534.729 565.939 538.552 564.49 542.292 562.981L543.04 564.836C539.274 566.355 535.425 567.814 531.598 569.173V569.173ZM327.84 566.369C324.043 564.9 320.229 563.332 316.505 561.708L317.304 559.875C321.003 561.488 324.791 563.045 328.562 564.504L327.84 566.369ZM554.29 560.021L553.464 558.2C557.142 556.533 560.83 554.768 564.426 552.953L565.328 554.738C561.707 556.566 557.993 558.343 554.29 560.021V560.021ZM305.377 556.576C301.722 554.796 298.055 552.914 294.478 550.982L295.428 549.222C298.981 551.141 302.623 553.01 306.253 554.778L305.377 556.576ZM576.135 548.998L575.16 547.252C578.683 545.284 582.211 543.216 585.645 541.106L586.692 542.81C583.234 544.935 579.682 547.017 576.135 548.998ZM283.824 544.937C280.335 542.859 276.839 540.678 273.433 538.452L274.528 536.778C277.91 538.988 281.382 541.155 284.847 543.218L283.824 544.937ZM263.325 531.542C260.022 529.182 256.722 526.717 253.514 524.217L254.744 522.64C257.929 525.123 261.208 527.571 264.488 529.915L263.325 531.542ZM244.018 516.492C240.918 513.861 237.834 511.132 234.852 508.38L236.208 506.91C239.17 509.644 242.233 512.355 245.312 514.967L244.018 516.492ZM226.033 499.896C223.164 497.02 220.318 494.045 217.574 491.054L219.047 489.702C221.773 492.672 224.6 495.627 227.449 498.484L226.033 499.896ZM209.49 481.871C206.874 478.771 204.286 475.572 201.796 472.361L203.376 471.135C205.849 474.325 208.421 477.502 211.018 480.581L209.49 481.871ZM194.505 462.54C192.153 459.231 189.84 455.829 187.63 452.426L189.307 451.336C191.502 454.715 193.8 458.095 196.135 461.381L194.505 462.54ZM181.183 442.037C179.116 438.544 177.095 434.962 175.177 431.39L176.94 430.443C178.844 433.992 180.851 437.549 182.905 441.018L181.183 442.037ZM169.623 420.502C167.856 416.853 166.143 413.115 164.53 409.395L166.366 408.6C167.967 412.294 169.668 416.006 171.423 419.631L169.623 420.502ZM159.91 398.087C158.453 394.298 157.059 390.429 155.765 386.586L157.66 385.948C158.945 389.764 160.33 393.606 161.776 397.369L159.91 398.087Z" fill="#161611"/>
<path d="M152.073 374.803C151.514 372.878 150.975 370.945 150.455 369.004L152.386 368.486C152.903 370.414 153.438 372.334 153.993 374.246L152.073 374.803Z" fill="#CCCCCC"/>
<path d="M722.693 260.388C722.472 258.403 722.231 256.425 721.97 254.453L723.952 254.19C724.215 256.176 724.458 258.168 724.681 260.166L722.693 260.388Z" fill="#CCCCCC"/>
<path d="M696.816 421.656L695.02 420.776C696.738 417.267 698.407 413.672 699.983 410.093L701.813 410.898C700.227 414.503 698.546 418.122 696.816 421.656ZM706.368 399.945L704.507 399.215C705.934 395.577 707.306 391.858 708.584 388.163L710.474 388.816C709.187 392.538 707.806 396.282 706.368 399.945ZM714.122 377.53L712.207 376.954C713.334 373.205 714.398 369.386 715.37 365.604L717.307 366.102C716.329 369.91 715.257 373.754 714.122 377.53V377.53ZM720.023 354.555L718.067 354.137C718.884 350.314 719.634 346.421 720.295 342.567L722.267 342.905C721.601 346.786 720.846 350.706 720.023 354.555V354.555ZM724.035 331.174L722.052 330.916C722.556 327.045 722.988 323.104 723.336 319.203L725.328 319.38C724.978 323.309 724.543 327.276 724.035 331.174V331.174ZM726.145 307.543L724.148 307.446C724.338 303.547 724.453 299.584 724.488 295.667L726.488 295.684C726.452 299.628 726.337 303.619 726.145 307.543V307.543ZM724.36 283.882C724.24 279.972 724.039 276.014 723.762 272.118L725.757 271.977C726.035 275.899 726.238 279.884 726.359 283.82L724.36 283.882Z" fill="#161611"/>
<path d="M688.486 437.432L686.747 436.445C687.729 434.713 688.695 432.971 689.643 431.218L691.402 432.169C690.448 433.935 689.476 435.689 688.486 437.432Z" fill="#161611"/>
<path d="M170.673 167.929L168.867 167.068C169.731 165.255 170.614 163.453 171.514 161.661L173.301 162.558C172.407 164.338 171.531 166.129 170.673 167.929Z" fill="#161611"/>
<path d="M178.886 151.989L177.137 151.018C179.076 147.524 181.114 144.025 183.193 140.617L184.9 141.659C182.835 145.043 180.812 148.519 178.886 151.989ZM682.95 143.063C680.907 139.671 678.763 136.271 676.577 132.958L678.247 131.856C680.448 135.192 682.607 138.616 684.663 142.03L682.95 143.063ZM191.335 131.582L189.672 130.471C191.891 127.149 194.209 123.827 196.562 120.599L198.178 121.777C195.842 124.983 193.539 128.282 191.335 131.582V131.582ZM669.795 123.122C667.477 119.903 665.061 116.69 662.615 113.571L664.189 112.336C666.652 115.477 669.084 118.712 671.418 121.953L669.795 123.122ZM205.417 112.262L203.85 111.018C206.334 107.888 208.916 104.768 211.523 101.745L213.037 103.051C210.448 106.054 207.884 109.152 205.417 112.262V112.262ZM655.05 104.32C652.475 101.299 649.805 98.2929 647.113 95.3852L648.581 94.0268C651.291 96.9545 653.98 99.9809 656.572 103.022L655.05 104.32ZM221.027 94.1597L219.567 92.7925C222.295 89.8789 225.122 86.98 227.97 84.1773L229.373 85.6021C226.545 88.3863 223.737 91.2656 221.027 94.1597ZM638.817 86.7813C636.008 83.9834 633.1 81.2046 630.177 78.522L631.529 77.0484C634.472 79.7496 637.399 82.5474 640.229 85.3643L638.817 86.7813ZM238.06 77.3936L236.717 75.9122C239.673 73.2305 242.727 70.5723 245.793 68.0118L247.075 69.547C244.03 72.0899 240.997 74.73 238.06 77.3936ZM621.205 70.6221C618.174 68.0611 615.049 65.5284 611.917 63.0943L613.144 61.5152C616.298 63.9659 619.444 66.5162 622.496 69.0948L621.205 70.6221ZM256.401 62.0753L255.183 60.4893C258.348 58.0587 261.608 55.6593 264.873 53.3575L266.025 54.9923C262.782 57.2783 259.545 59.6616 256.401 62.0752V62.0753ZM602.328 55.9517C599.097 53.6466 595.775 51.3775 592.455 49.2076L593.548 47.5333C596.892 49.7183 600.237 52.0025 603.49 54.3238L602.328 55.9517ZM275.929 48.3096L274.845 46.6289C278.198 44.4654 281.643 42.3413 285.084 40.3159L286.098 42.0396C282.681 44.0513 279.26 46.1606 275.929 48.3096ZM582.311 42.8741C578.904 40.8428 575.407 38.8536 571.915 36.962L572.867 35.2032C576.383 37.108 579.905 39.1109 583.335 41.1563L582.311 42.8741ZM296.515 36.192L295.572 34.4283C299.095 32.5455 302.702 30.712 306.293 28.9786L307.162 30.7794C303.596 32.501 300.014 34.3223 296.515 36.1919V36.192ZM561.283 31.482C557.709 29.733 554.058 28.0386 550.432 26.4458L551.236 24.6148C554.888 26.2183 558.563 27.9243 562.162 29.6861L561.283 31.482ZM318.022 25.8116L317.227 23.9756C320.888 22.3921 324.632 20.8623 328.358 19.4292L329.076 21.2964C325.376 22.7193 321.657 24.2383 318.022 25.8116V25.8116ZM539.382 21.8614C535.685 20.417 531.906 19.0294 528.149 17.7378L528.799 15.8462C532.582 17.147 536.388 18.544 540.11 19.9986L539.382 21.8614ZM340.305 17.2422L339.665 15.3477C343.448 14.0694 347.306 12.8545 351.129 11.7368L351.69 13.6568C347.893 14.7666 344.062 15.9732 340.305 17.2422ZM516.753 14.0826C512.945 12.9478 509.063 11.8775 505.214 10.9019L505.705 8.96341C509.581 9.94584 513.49 11.023 517.324 12.1656L516.753 14.0826ZM363.212 10.5445L362.73 8.60306C366.604 7.64261 370.547 6.75052 374.449 5.95267L374.849 7.91167C370.975 8.70464 367.059 9.59036 363.212 10.5445V10.5445ZM493.55 8.20218C489.679 7.38968 485.728 6.64554 481.805 5.98978L482.135 4.01712C486.084 4.67728 490.063 5.42679 493.961 6.24512L493.55 8.20218ZM386.606 5.75784L386.286 3.78323C390.227 3.14456 394.236 2.57961 398.202 2.10403L398.44 4.08939C394.502 4.56205 390.52 5.12356 386.606 5.75784V5.75784ZM469.979 4.26321C466.052 3.772 462.053 3.35453 458.092 3.02347L458.259 1.0303C462.247 1.36379 466.274 1.78373 470.227 2.27884L469.979 4.26321ZM410.333 2.90822L410.176 0.914078C414.155 0.601078 418.197 0.365239 422.189 0.213379L422.264 2.21193C418.299 2.36283 414.285 2.5967 410.333 2.90823V2.90822ZM446.165 2.26955C442.204 2.1006 438.184 2.00977 434.216 2L434.221 0C438.216 0.00977 442.263 0.10109 446.25 0.2715L446.165 2.26955Z" fill="#161611"/>
<path d="M691.768 158.784C690.847 157.015 689.908 155.257 688.952 153.509L690.707 152.549C691.669 154.309 692.615 156.079 693.542 157.86L691.768 158.784Z" fill="#161611"/>
<path d="M369.5 195.999H351V352.499C350.995 356.476 349.413 360.288 346.601 363.1C343.789 365.912 339.977 367.494 336 367.499H33.5V380.999C33.5064 385.506 35.2995 389.826 38.4862 393.013C41.673 396.2 45.9933 397.993 50.5 397.999H369.5C374.007 397.993 378.327 396.2 381.514 393.013C384.701 389.826 386.494 385.506 386.5 380.999V212.999C386.494 208.492 384.701 204.172 381.514 200.985C378.327 197.799 374.007 196.005 369.5 195.999Z" fill="#161611"/>
<path d="M336 167.499H17C12.4933 167.505 8.17296 169.299 4.98622 172.485C1.79948 175.672 0.00637539 179.992 0 184.499V352.499C0.00637803 357.006 1.7995 361.326 4.98624 364.513C8.17297 367.7 12.4933 369.493 17 369.499H336C340.507 369.493 344.827 367.7 348.014 364.513C351.201 361.326 352.994 357.006 353 352.499V184.499C352.994 179.992 351.201 175.672 348.014 172.485C344.827 169.299 340.507 167.505 336 167.499ZM351 352.499C350.995 356.476 349.413 360.288 346.601 363.1C343.789 365.912 339.977 367.494 336 367.499H17C13.0232 367.494 9.21074 365.912 6.39874 363.1C3.58675 360.288 2.00484 356.476 2 352.499V184.499C2.00484 180.522 3.58675 176.71 6.39874 173.898C9.21074 171.086 13.0232 169.504 17 169.499H336C339.977 169.504 343.789 171.086 346.601 173.898C349.413 176.71 350.995 180.522 351 184.499V352.499Z" fill="#214E9D"/>
<path d="M311.941 291.499H199.941C197.819 291.499 195.784 290.656 194.284 289.156C192.784 287.656 191.941 285.621 191.941 283.499C191.941 281.377 192.784 279.342 194.284 277.842C195.784 276.342 197.819 275.499 199.941 275.499H311.941C314.063 275.499 316.097 276.342 317.598 277.842C319.098 279.342 319.941 281.377 319.941 283.499C319.941 285.621 319.098 287.656 317.598 289.156C316.097 290.656 314.063 291.499 311.941 291.499Z" fill="#161611"/>
<path d="M241.941 257.499H199.941C197.819 257.499 195.784 256.656 194.284 255.156C192.784 253.656 191.941 251.621 191.941 249.499C191.941 247.377 192.784 245.342 194.284 243.842C195.784 242.342 197.819 241.499 199.941 241.499H241.941C244.063 241.499 246.097 242.342 247.598 243.842C249.098 245.342 249.941 247.377 249.941 249.499C249.941 251.621 249.098 253.656 247.598 255.156C246.097 256.656 244.063 257.499 241.941 257.499Z" fill="#214E9D"/>
<path d="M878.5 460.999H862.44V513.319C862.434 517.826 860.64 522.146 857.454 525.333C854.267 528.52 849.947 530.313 845.44 530.319H444.5V537.999C444.505 543.037 446.508 547.867 450.07 551.429C453.632 554.991 458.462 556.994 463.5 556.999H878.5C883.538 556.994 888.368 554.991 891.93 551.429C895.492 547.867 897.495 543.037 897.5 537.999V479.999C897.495 474.961 895.492 470.131 891.93 466.569C888.368 463.007 883.538 461.004 878.5 460.999Z" fill="#161611"/>
<path d="M845.44 436.319H430.44C425.402 436.324 420.572 438.327 417.01 441.889C413.448 445.451 411.445 450.281 411.44 455.319V513.319C411.445 518.357 413.448 523.187 417.01 526.749C420.572 530.311 425.402 532.315 430.44 532.319H845.44C850.478 532.315 855.308 530.311 858.87 526.749C862.432 523.187 864.435 518.357 864.44 513.319V455.319C864.435 450.281 862.432 445.451 858.87 441.889C855.308 438.327 850.478 436.324 845.44 436.319ZM862.44 513.319C862.434 517.826 860.64 522.146 857.454 525.333C854.267 528.52 849.947 530.313 845.44 530.319H430.44C425.933 530.313 421.613 528.52 418.426 525.333C415.239 522.146 413.446 517.826 413.44 513.319V455.319C413.446 450.812 415.239 446.492 418.426 443.305C421.613 440.119 425.933 438.325 430.44 438.319H845.44C849.947 438.325 854.267 440.119 857.454 443.305C860.64 446.492 862.434 450.812 862.44 455.319V513.319Z" fill="#214E9D"/>
<path d="M503.272 452.322C496.943 452.322 490.756 454.199 485.493 457.715C480.231 461.231 476.129 466.229 473.707 472.076C471.285 477.923 470.652 484.357 471.886 490.565C473.121 496.772 476.169 502.474 480.644 506.949C485.119 511.424 490.821 514.472 497.029 515.707C503.236 516.942 509.67 516.308 515.517 513.886C521.365 511.464 526.362 507.362 529.878 502.1C533.395 496.838 535.271 490.651 535.271 484.322C535.262 475.838 531.887 467.704 525.888 461.705C519.889 455.706 511.755 452.331 503.272 452.322Z" fill="#214E9D"/>
<path d="M796.61 511.322H567.61C565.489 511.322 563.454 510.479 561.953 508.979C560.453 507.478 559.61 505.444 559.61 503.322C559.61 501.2 560.453 499.165 561.953 497.665C563.454 496.165 565.489 495.322 567.61 495.322H796.61C798.732 495.322 800.767 496.165 802.267 497.665C803.768 499.165 804.61 501.2 804.61 503.322C804.61 505.444 803.768 507.478 802.267 508.979C800.767 510.479 798.732 511.322 796.61 511.322Z" fill="#161611"/>
<path d="M681.61 477.322H567.61C565.489 477.322 563.454 476.479 561.953 474.979C560.453 473.478 559.61 471.444 559.61 469.322C559.61 467.2 560.453 465.165 561.953 463.665C563.454 462.165 565.489 461.322 567.61 461.322H681.61C683.732 461.322 685.767 462.165 687.267 463.665C688.768 465.165 689.61 467.2 689.61 469.322C689.61 471.444 688.768 473.478 687.267 474.979C685.767 476.479 683.732 477.322 681.61 477.322Z" fill="#214E9D"/>
<path d="M501.101 498.314C500.274 498.315 499.47 498.048 498.808 497.552L498.767 497.521L490.129 490.913C489.321 490.294 488.792 489.379 488.659 488.37C488.526 487.36 488.799 486.339 489.418 485.531C490.038 484.723 490.953 484.195 491.962 484.061C492.971 483.928 493.992 484.201 494.8 484.821L500.395 489.111L513.616 471.863C513.923 471.463 514.305 471.127 514.741 470.875C515.177 470.623 515.659 470.459 516.159 470.393C516.658 470.327 517.166 470.36 517.653 470.49C518.139 470.621 518.596 470.845 518.996 471.152L518.997 471.153L518.915 471.267L518.999 471.153C519.806 471.773 520.334 472.688 520.467 473.696C520.6 474.705 520.327 475.726 519.709 476.534L504.158 496.812C503.798 497.28 503.336 497.658 502.806 497.917C502.277 498.177 501.694 498.311 501.105 498.309L501.101 498.314Z" fill="white"/>
<path d="M819.5 175.999H817.38C817.42 176.429 817.44 176.869 817.44 177.319V235.319C817.434 239.826 815.64 244.146 812.454 247.333C809.267 250.52 804.947 252.313 800.44 252.319H601.5V252.999C601.5 253.439 601.52 253.879 601.55 254.319C601.885 259.117 604.027 263.609 607.544 266.89C611.06 270.172 615.69 271.997 620.5 271.999H819.5C824.538 271.994 829.368 269.991 832.93 266.429C836.492 262.867 838.495 258.037 838.5 252.999V194.999C838.495 189.961 836.492 185.131 832.93 181.569C829.368 178.007 824.538 176.004 819.5 175.999Z" fill="#161611"/>
<path d="M819.39 175.999C819.055 171.201 816.913 166.709 813.396 163.428C809.88 160.146 805.25 158.321 800.44 158.319H601.44C596.402 158.324 591.572 160.327 588.01 163.889C584.448 167.451 582.445 172.281 582.44 177.319V235.319C582.445 240.357 584.448 245.187 588.01 248.749C591.572 252.311 596.402 254.315 601.44 254.319H800.44C805.478 254.315 810.308 252.311 813.87 248.749C817.432 245.187 819.435 240.357 819.44 235.319V177.319C819.44 176.879 819.42 176.439 819.39 175.999ZM817.44 235.319C817.434 239.826 815.64 244.146 812.454 247.333C809.267 250.52 804.947 252.313 800.44 252.319H601.44C596.933 252.313 592.613 250.52 589.426 247.333C586.239 244.146 584.446 239.826 584.44 235.319V177.319C584.446 172.812 586.239 168.492 589.426 165.305C592.613 162.119 596.933 160.325 601.44 160.319H800.44C804.718 160.325 808.836 161.942 811.975 164.848C815.114 167.753 817.044 171.735 817.38 175.999C817.42 176.429 817.44 176.869 817.44 177.319V235.319Z" fill="#214E9D"/>
<path d="M749.941 231.322H651.941C649.819 231.322 647.784 230.479 646.284 228.979C644.784 227.478 643.941 225.444 643.941 223.322C643.941 221.2 644.784 219.165 646.284 217.665C647.784 216.165 649.819 215.322 651.941 215.322H749.941C752.063 215.322 754.097 216.165 755.598 217.665C757.098 219.165 757.941 221.2 757.941 223.322C757.941 225.444 757.098 227.478 755.598 228.979C754.097 230.479 752.063 231.322 749.941 231.322Z" fill="#161611"/>
<path d="M719.941 197.322H651.941C649.819 197.322 647.784 196.479 646.284 194.979C644.784 193.478 643.941 191.444 643.941 189.322C643.941 187.2 644.784 185.165 646.284 183.665C647.784 182.165 649.819 181.322 651.941 181.322H719.941C722.063 181.322 724.097 182.165 725.598 183.665C727.098 185.165 727.941 187.2 727.941 189.322C727.941 191.444 727.098 193.478 725.598 194.979C724.097 196.479 722.063 197.322 719.941 197.322Z" fill="#214E9D"/>
<g opacity="0.5">
<path opacity="0.5" d="M84 318C111.614 318 134 295.614 134 268C134 240.386 111.614 218 84 218C56.3858 218 34 240.386 34 268C34 295.614 56.3858 318 84 318Z" fill="url(#paint0_linear_303_116)"/>
</g>
<path d="M84.0994 316.627C111.131 316.627 133.045 294.713 133.045 267.682C133.045 240.65 111.131 218.736 84.0994 218.736C57.0675 218.736 35.1538 240.65 35.1538 267.682C35.1538 294.713 57.0675 316.627 84.0994 316.627Z" fill="#F5F5F5"/>
<path d="M84.1463 316.821C93.7103 316.836 103.067 314.036 111.05 308.769C109.247 298.912 102.383 298.351 102.383 298.351H64.5317C64.5317 298.351 58.0547 298.882 56.0317 307.95C64.2623 313.739 74.0836 316.838 84.1463 316.821V316.821Z" fill="#214E9D"/>
<path d="M83.622 290.273C96.6695 290.273 107.247 279.696 107.247 266.649C107.247 253.601 96.6695 243.024 83.622 243.024C70.5746 243.024 59.9976 253.601 59.9976 266.649C59.9976 279.696 70.5746 290.273 83.622 290.273Z" fill="#333333"/>
<path opacity="0.1" d="M76.001 286.324H91.1385V298.434C91.1385 300.441 90.3415 302.366 88.9227 303.785C87.5039 305.205 85.5795 306.002 83.5726 306.003V306.003C81.5653 306.003 79.6401 305.206 78.2207 303.786C76.8013 302.367 76.0038 300.442 76.0038 298.434V286.324H76.001Z" fill="black"/>
<path d="M76.482 285.761H90.6653C90.7926 285.761 90.9146 285.812 91.0047 285.902C91.0947 285.992 91.1452 286.114 91.1452 286.241V297.872C91.1454 298.866 90.9497 299.851 90.5692 300.769C90.1888 301.688 89.631 302.523 88.9279 303.226C88.2247 303.929 87.39 304.486 86.4713 304.866C85.5526 305.247 84.5679 305.442 83.5736 305.442V305.442C81.5663 305.442 79.6411 304.644 78.2217 303.225C76.8023 301.806 76.0049 299.881 76.0049 297.873V286.241C76.0049 286.115 76.055 285.993 76.1444 285.903C76.2338 285.813 76.3552 285.762 76.482 285.761V285.761Z" fill="#FDB797"/>
<path opacity="0.1" d="M76.0283 292.045C80.907 293.868 86.2772 293.883 91.1659 292.087V290.224H76.0283V292.045Z" fill="black"/>
<path d="M83.6214 293.054C95.6047 293.054 105.319 283.339 105.319 271.356C105.319 259.373 95.6047 249.659 83.6214 249.659C71.6382 249.659 61.9238 259.373 61.9238 271.356C61.9238 283.339 71.6382 293.054 83.6214 293.054Z" fill="#FDB797"/>
<path opacity="0.1" d="M68.167 251.619C68.167 251.619 77.3117 270.18 103.107 259.401L97.1012 249.984L86.455 246.163L68.167 251.619Z" fill="black"/>
<path d="M68.167 251.352C68.167 251.352 77.3117 269.914 103.107 259.132L97.1012 249.715L86.455 245.894L68.167 251.352Z" fill="#333333"/>
<path d="M68.0838 250.094C68.7004 248.185 69.7661 246.452 71.1913 245.041C75.4592 240.821 82.4563 239.932 86.0451 235.121C86.9047 236.456 86.24 238.509 84.7557 239.082C88.1941 239.059 92.1784 238.758 94.1225 235.93C94.6029 237.049 94.7561 238.281 94.5641 239.483C94.3721 240.685 93.8429 241.808 93.038 242.721C96.0852 242.864 99.3417 244.927 99.5337 247.972C99.6655 250.001 98.3875 251.92 96.7271 253.084C95.0666 254.247 93.0437 254.781 91.0594 255.218C85.2658 256.498 64.303 261.852 68.0838 250.094Z" fill="#333333"/>
<path d="M61.9151 275.12C63.03 275.12 63.9337 273.425 63.9337 271.335C63.9337 269.244 63.03 267.55 61.9151 267.55C60.8002 267.55 59.8965 269.244 59.8965 271.335C59.8965 273.425 60.8002 275.12 61.9151 275.12Z" fill="#FDB797"/>
<path d="M105.319 275.12C106.434 275.12 107.338 273.425 107.338 271.335C107.338 269.244 106.434 267.55 105.319 267.55C104.205 267.55 103.301 269.244 103.301 271.335C103.301 273.425 104.205 275.12 105.319 275.12Z" fill="#FDB797"/>
<defs>
<linearGradient id="paint0_linear_303_116" x1="84" y1="318" x2="84" y2="218" gradientUnits="userSpaceOnUse">
<stop stop-color="#808080" stop-opacity="0.25"/>
<stop offset="0.54" stop-color="#808080" stop-opacity="0.12"/>
<stop offset="1" stop-color="#808080" stop-opacity="0.1"/>
</linearGradient>
</defs>
</svg>
